<svg width="182" height="164" viewBox="0 0 182 164" fill="none" xmlns="http://www.w3.org/2000/svg">
<g filter="url(#filter0_d_712_3593)">
<rect x="4" width="174" height="156" fill="#D9D9D9"/>
</g>
<path d="M66.72 56.8828L28.0799 101.921H15L54.2793 56.8828H66.72Z" fill="black"/>
<path d="M57.3564 73.5935L66.7199 62.8066V101.921H57.3564V91.846L41.3574 91.7274L48.3487 84.143H57.3564V73.5935Z" fill="black"/>
<path d="M95.7922 93.981C87.8388 93.981 81.3944 87.5366 81.3944 79.5832C81.3944 71.6298 87.8388 65.1854 95.7922 65.1854C100.128 65.1854 104.009 67.0963 106.645 70.1274L112.832 63.5381C108.562 59.0046 102.507 56.1777 95.7922 56.1777C82.8638 56.1777 72.3867 66.6614 72.3867 79.5832C72.3867 92.505 82.8704 102.989 95.7922 102.989C101.485 102.989 106.711 100.953 110.77 97.559L105.973 89.7638C103.363 92.3666 99.7656 93.981 95.7922 93.981Z" fill="black"/>
<path d="M144.488 75.9395L137.022 84.5913H148.33V89.5861C145.72 92.1889 142.123 93.8033 138.149 93.8033C130.196 93.8033 123.751 87.3589 123.751 79.4055C123.751 71.4521 130.196 65.0077 138.149 65.0077C142.485 65.0077 146.366 66.9186 149.002 69.9497L155.189 63.3603C150.919 58.8268 144.864 56 138.149 56C125.221 56 114.744 66.4837 114.744 79.4055C114.744 92.3272 125.227 102.811 138.149 102.811C138.775 102.811 139.401 102.785 140.014 102.732C140.027 102.732 140.047 102.725 140.06 102.725C140.31 102.706 140.567 102.679 140.818 102.646C140.936 102.633 141.062 102.62 141.18 102.607C141.253 102.6 141.332 102.587 141.404 102.574C151.822 101.223 157.687 95.0091 157.687 95.0091V76.4007L144.488 75.9395Z" fill="black"/>
<defs>
<filter id="filter0_d_712_3593" x="0" y="0" width="182" height="164" filterUnits="userSpaceOnUse" color-interpolation-filters="sRGB">
<feFlood flood-opacity="0" result="BackgroundImageFix"/>
<feColorMatrix in="SourceAlpha" type="matrix" values="0 0 0 0 0 0 0 0 0 0 0 0 0 0 0 0 0 0 127 0" result="hardAlpha"/>
<feOffset dy="4"/>
<feGaussianBlur stdDeviation="2"/>
<feComposite in2="hardAlpha" operator="out"/>
<feColorMatrix type="matrix" values="0 0 0 0 0 0 0 0 0 0 0 0 0 0 0 0 0 0 0.25 0"/>
<feBlend mode="normal" in2="BackgroundImageFix" result="effect1_dropShadow_712_3593"/>
<feBlend mode="normal" in="SourceGraphic" in2="effect1_dropShadow_712_3593" result="shape"/>
</filter>
</defs>
</svg>
